# xmcd CD database file
#
# Track frame offsets:
#	150
#	12555
#	27202
#	41115
#	54605
#	65492
#	78557
#	91087
#	100352
#	112067
#	123527
#	134075
#	146915
#	156940
#	165530
#	174597
#	185845
#	197537
#
# Disc length: 2762 seconds
#
# Revision: 4
# Processed by: cddbd v1.5.1PL0 Copyright (c) Steve Scherf et al.
# Submitted via: CDex 1.51
#
DISCID=0d0ac812
DTITLE=The Cleftones - Best Of
DYEAR=1900
DGENRE=Doo Wop
TTITLE0=You Baby You
TTITLE1=Little Girl Of Mine
TTITLE2=You're Driving Me Mad
TTITLE3=Can't We Be Sweethearts
TTITLE4=Neki-Hokey
TTITLE5=Happy Memories
TTITLE6=String Around My Heart
TTITLE7=Why You Do Me Like You Do
TTITLE8=I Like Your Style Of Making Love
TTITLE9=See You Next Year
TTITLE10=She's So Fine
TTITLE11=Lover Boy
TTITLE12=Beginners At Love
TTITLE13=Heart And Soul
TTITLE14=How Do You Feel
TTITLE15=Please Say You Want Me
TTITLE16=For Sentimental Reasons
TTITLE17=Lover Come Back To Me
EXTD=Rhino\nVarious
EXTT0=
EXTT1=
EXTT2=
EXTT3=
EXTT4=
EXTT5=
EXTT6=
EXTT7=
EXTT8=
EXTT9=
EXTT10=
EXTT11=
EXTT12=
EXTT13=
EXTT14=
EXTT15=
EXTT16=
EXTT17=
PLAYORDER=
